# xmcd CD database file
#
# Track frame offsets:
#	150
#	17157
#	35017
#	48412
#	63504
#	77218
#	94486
#	114161
#	125510
#	145684
#	159865
#	182716
#	197977
#	216992
#
# Disc length: 3088 seconds
#
# Revision: 0
# Processed by: cddbd v1.4PL0 Copyright (c) Steve Scherf et al.
# Submitted via: CDex 1.51
#
DISCID=c70c0e0e
DTITLE=Gitty Pullmann - Ready to go...
DYEAR=20002
DGENRE=Country
TTITLE0=Ready to go
TTITLE1=Bobby Mc Gee
TTITLE2=Dixie Darlin'
TTITLE3=Thanks to you
TTITLE4=Son of a Preacherman
TTITLE5=Make me whole again
TTITLE6=Stand by me
TTITLE7=Jambalaya
TTITLE8=The Light
TTITLE9=Makin' Love together
TTITLE10=Amerivan Pie
TTITLE11=Last a Lifetime
TTITLE12=Still the one
TTITLE13=Don't Bite
EXTD=YEAR: 20002
EXTT0=
EXTT1=
EXTT2=
EXTT3=
EXTT4=
EXTT5=
EXTT6=
EXTT7=
EXTT8=
EXTT9=
EXTT10=
EXTT11=
EXTT12=
EXTT13=
PLAYORDER=
